<?xml version="1.0" standalone="no"?><!DOCTYPE svg PUBLIC "-//W3C//DTD SVG 1.1//EN" "http://www.w3.org/Graphics/SVG/1.1/DTD/svg11.dtd"><svg t="1585673188243" class="icon" viewBox="0 0 1024 1024" version="1.1" xmlns="http://www.w3.org/2000/svg" p-id="831" xmlns:xlink="http://www.w3.org/1999/xlink" width="32" height="32"><defs><style type="text/css"></style></defs><path d="M237.795556 768l-10.24-11.377778 131.982222-131.982222-100.124445-98.986667-130.844444 131.982223-11.377778-11.377778 142.222222-142.222222 121.742223 120.604444z" fill="#ffffff" p-id="832"></path><path d="M58.026667 833.991111c-2.275556 0-3.413333-1.137778-5.688889-2.275555-2.275556-2.275556-2.275556-5.688889-2.275556-7.964445L114.915556 648.533333c1.137778-3.413333 5.688889-5.688889 10.24-4.551111 3.413333 1.137778 5.688889 5.688889 4.551111 10.24l-59.164445 159.288889 159.288889-59.164444c3.413333-1.137778 7.964444 0 10.24 4.551111 1.137778 3.413333 0 7.964444-4.551111 10.24L61.44 833.991111h-3.413333zM398.222222 661.048889c-2.275556 0-3.413333-1.137778-5.688889-2.275556L226.417778 492.657778c-1.137778-1.137778-2.275556-3.413333-2.275556-5.688889s1.137778-3.413333 2.275556-5.688889L597.333333 111.502222c13.653333-13.653333 36.408889-13.653333 50.062223 0L773.688889 237.795556c13.653333 13.653333 13.653333 36.408889 0 50.062222L403.911111 658.773333c-2.275556 1.137778-3.413333 2.275556-5.688889 2.275556zM242.346667 486.968889L398.222222 642.844444l365.226667-365.226666c7.964444-7.964444 7.964444-20.48 0-28.444445L637.155556 121.742222c-7.964444-7.964444-20.48-7.964444-28.444445 0L242.346667 486.968889z" fill="#ffffff" p-id="833"></path><path d="M597.333333 859.022222c-40.96 0-83.057778-6.826667-119.466666-25.031111-101.262222-51.2-415.288889 0-418.702223 1.137778-3.413333 0-6.826667-1.137778-7.964444-4.551111-1.137778-3.413333-1.137778-6.826667 1.137778-9.102222l96.711111-96.711112c3.413333-3.413333 7.964444-3.413333 10.24 0 3.413333 3.413333 3.413333 7.964444 0 10.24l-79.644445 79.644445c75.093333-11.377778 315.164444-40.96 405.048889 4.551111 102.4 51.2 256 9.102222 293.546667-31.857778 27.306667-29.582222 80.782222-35.271111 119.466667-31.857778 35.271111 3.413333 62.577778 14.791111 73.955555 30.72 2.275556 3.413333 1.137778 7.964444-2.275555 10.24-3.413333 2.275556-7.964444 1.137778-10.24-2.275555-7.964444-11.377778-31.857778-21.617778-62.577778-23.893333-37.546667-3.413333-85.333333 4.551111-106.951111 27.306666-27.306667 30.72-108.088889 61.44-192.284445 61.44z" fill="#ffffff" p-id="834"></path><path d="M161.564444 741.831111c-4.551111 0-9.102222-2.275556-12.515555-5.688889-3.413333-3.413333-5.688889-7.964444-5.688889-12.515555 0-4.551111 2.275556-9.102222 5.688889-12.515556 3.413333-3.413333 7.964444-5.688889 12.515555-5.688889 4.551111 0 9.102222 2.275556 12.515556 5.688889 3.413333 3.413333 5.688889 7.964444 5.688889 12.515556 0 4.551111-2.275556 9.102222-5.688889 12.515555-2.275556 3.413333-6.826667 5.688889-12.515556 5.688889z m0-22.755555s-1.137778 0-2.275555 1.137777v2.275556s0 1.137778 1.137778 2.275555 2.275556 1.137778 2.275555 1.137778 1.137778 0 2.275556-1.137778 1.137778-2.275556 1.137778-2.275555 0-1.137778-1.137778-2.275556c-1.137778 0-2.275556-1.137778-3.413334-1.137777z" fill="#ffffff" p-id="835"></path></svg>